<svg width="20" height="20" xmlns="http://www.w3.org/2000/svg">
 <g>
  <title>background</title>
  <rect x="-1" y="-1" width="22" height="22" id="canvas_background" fill="none"/>
 </g>

 <g>
  <title>Layer 1</title>
  <path stroke="null" d="m10.672848,0.167654c-2.290409,0 -4.845464,0.593659 -6.799003,2.007036c-0.188889,0.114531 -0.337879,0.33759 -0.265152,0.70969c0.039394,0.18555 0.189899,1.003268 0.377273,1.450388c0.151515,0.372099 0.525759,0.372099 0.750507,0.22406c1.203538,-0.818219 3.569704,-1.747467 5.635365,-1.747467c2.143439,0 2.180307,1.040778 2.180307,2.677215l0,1.410877c-3.23233,0.41161 -7.852541,1.267339 -9.01618,1.750468c-1.316669,0.596159 -1.128285,3.424415 -1.128285,4.094094s0.564143,3.833024 4.621726,3.833024c1.76768,0 4.207079,-0.781209 5.672234,-1.563918l0,0.931249c0,0.11103 0.076263,0.30008 0.226768,0.33509c0.113132,0.03651 1.878287,0.07452 2.216166,0.07452s2.067681,-0.03801 2.217681,-0.07452s0.187879,-0.22356 0.187879,-0.33509l0,-10.866403c0,-2.940286 -1.915155,-4.910312 -6.877286,-4.910312m-3.23233,11.980201c0,-0.446619 -0.112121,-1.563918 0.678284,-1.936517c0.900507,-0.482629 2.777783,-1.077788 4.432332,-1.226828l0,3.907544c-0.791921,0.483129 -1.802529,0.892238 -2.929299,0.892238c-1.954044,0 -2.179297,-1.227828 -2.179297,-1.636937" fill="#fff" id="svg_2"/>
 </g>
</svg>